<?xml version="1.0" standalone="no"?>
<!DOCTYPE svg PUBLIC "-//W3C//DTD SVG 20010904//EN"
 "http://www.w3.org/TR/2001/REC-SVG-20010904/DTD/svg10.dtd">
<svg version="1.0" xmlns="http://www.w3.org/2000/svg"
 width="325.000000pt" height="325.000000pt" viewBox="0 0 325.000000 325.000000"
 preserveAspectRatio="xMidYMid meet">
<metadata>
Created by potrace 1.11, written by Peter Selinger 2001-2013
</metadata>
<g transform="translate(0.000000,325.000000) scale(0.100000,-0.100000)"
fill="#000000" stroke="none">
<path d="M1127 2111 c-4 -16 3 -21 38 -30 23 -6 48 -18 56 -27 11 -13 13 -89
14 -380 l0 -364 64 -30 c34 -17 65 -30 67 -30 2 0 4 172 5 383 1 210 4 393 8
407 l7 25 199 0 c187 0 203 -2 250 -23 98 -45 138 -107 139 -217 0 -54 -5 -80
-22 -113 -30 -56 -91 -100 -154 -108 -32 -4 -52 -13 -58 -25 -40 -74 243 -10
307 69 60 75 82 140 77 231 -5 103 -65 180 -174 224 -53 21 -69 22 -436 25
-372 3 -382 3 -387 -17z"/>
<path d="M1490 1550 l0 -360 66 -30 c37 -16 67 -30 68 -30 1 0 -1 713 -3 723
-1 8 -107 57 -122 57 -5 0 -9 -161 -9 -360z"/>
</g>
</svg>
